<?xml version="1.0" encoding="UTF-8" standalone="no"?>
<svg
   fill="none"
   viewBox="0 0 128 128"
   version="1.1"
   id="svg1"
   sodipodi:docname="logo.svg"
   inkscape:version="1.3.2 (091e20e, 2023-11-25, custom)"
   xmlns:inkscape="http://www.inkscape.org/namespaces/inkscape"
   xmlns:sodipodi="http://sodipodi.sourceforge.net/DTD/sodipodi-0.dtd"
   xmlns="http://www.w3.org/2000/svg"
   xmlns:svg="http://www.w3.org/2000/svg">
  <defs
     id="defs1" />
  <sodipodi:namedview
     id="namedview1"
     pagecolor="#505050"
     bordercolor="#eeeeee"
     borderopacity="1"
     inkscape:showpageshadow="0"
     inkscape:pageopacity="0"
     inkscape:pagecheckerboard="0"
     inkscape:deskcolor="#505050"
     showguides="true"
     inkscape:zoom="4"
     inkscape:cx="123.75"
     inkscape:cy="87.875"
     inkscape:window-width="1920"
     inkscape:window-height="1111"
     inkscape:window-x="-9"
     inkscape:window-y="410"
     inkscape:window-maximized="1"
     inkscape:current-layer="svg1">
    <sodipodi:guide
       position="64.008919,123.26421"
       orientation="1,0"
       id="guide1"
       inkscape:locked="false" />
    <sodipodi:guide
       position="-46.457079,64"
       orientation="0,-1"
       id="guide2"
       inkscape:locked="false" />
    <sodipodi:guide
       position="46.162765,20.619844"
       orientation="0,-1"
       id="guide5"
       inkscape:locked="false" />
    <sodipodi:guide
       position="59.576365,106.80936"
       orientation="0,-1"
       id="guide3"
       inkscape:locked="false" />
    <sodipodi:guide
       position="52.267567,20.639592"
       orientation="0,-1"
       id="guide4"
       inkscape:locked="false" />
    <sodipodi:guide
       position="105.16834,67.068005"
       orientation="1,0"
       id="guide6"
       inkscape:locked="false" />
    <sodipodi:guide
       position="29.875261,61.355186"
       orientation="1,0"
       id="guide7"
       inkscape:locked="false" />
  </sodipodi:namedview>
  <style
     id="style1">
        path { fill: #000; }
        @media (prefers-color-scheme: dark) {
            path { fill: #FFF; }
        }
    </style>
  <g
     id="g1">
    <path
       id="path3-4"
       style="font-size:133.079px;line-height:1.25;letter-spacing:0px;word-spacing:0px;fill:#34679b;fill-opacity:1;stroke-width:3.32698"
       d="M 105.16992 21.191406 L 82.439453 21.197266 L 55.017578 60.367188 L 55.017578 71.029297 A 0.51068216 0.51068216 0 0 1 55.097656 70.802734 A 0.51068216 0.51068216 0 0 1 55.779297 71.044922 A 0.51068216 0.51068216 0 0 1 55.537109 71.724609 A 0.51068216 0.51068216 0 0 1 55.017578 71.541016 L 55.017578 80.898438 A 0.72570624 0.72570624 0 0 1 55.779297 81.167969 A 0.72570624 0.72570624 0 0 1 55.435547 82.134766 A 0.72570624 0.72570624 0 0 1 55.017578 82.15625 L 55.017578 90.8125 A 0.94968962 0.94968962 0 0 1 55.785156 91.287109 A 0.94968962 0.94968962 0 0 1 55.337891 92.552734 A 0.94968962 0.94968962 0 0 1 55.017578 92.568359 L 55.017578 95.144531 L 58.330078 90.259766 A 0.94968962 0.94968962 0 0 1 58.197266 90.138672 A 0.94968962 0.94968962 0 0 1 58.644531 88.873047 A 0.94968962 0.94968962 0 0 1 59.294922 88.837891 L 67.851562 76.220703 A 0.73466558 0.73466558 0 0 1 67.814453 76.248047 A 0.73466558 0.73466558 0 0 1 66.835938 75.900391 A 0.73466558 0.73466558 0 0 1 67.181641 74.919922 A 0.73466558 0.73466558 0 0 1 68.162109 75.267578 A 0.73466558 0.73466558 0 0 1 68.210938 75.689453 L 73.496094 67.898438 A 0.62715354 0.62715354 0 0 1 73.216797 67.798828 A 0.62715354 0.62715354 0 0 1 73.513672 66.962891 A 0.62715354 0.62715354 0 0 1 74.009766 67.138672 L 88.621094 45.595703 A 0.30461743 0.30461743 0 0 1 88.238281 45.458984 A 0.30461743 0.30461743 0 0 1 88.382812 45.052734 A 0.30461743 0.30461743 0 0 1 88.789062 45.197266 A 0.30461743 0.30461743 0 0 1 88.810547 45.314453 L 105.16992 21.191406 z M 96.919922 31.101562 A 0.08959335 0.08959335 0 0 1 97.039062 31.142578 A 0.08959335 0.08959335 0 0 1 96.996094 31.263672 A 0.08959335 0.08959335 0 0 1 96.876953 31.220703 A 0.08959335 0.08959335 0 0 1 96.919922 31.101562 z M 92.859375 33.070312 A 0.08063404 0.08063404 0 0 1 92.90625 33.113281 A 0.08063404 0.08063404 0 0 1 92.867188 33.220703 A 0.08063404 0.08063404 0 0 1 92.759766 33.181641 A 0.08063404 0.08063404 0 0 1 92.798828 33.074219 A 0.08063404 0.08063404 0 0 1 92.859375 33.070312 z M 88.734375 35.037109 A 0.08063404 0.08063404 0 0 1 88.78125 35.078125 A 0.08063404 0.08063404 0 0 1 88.742188 35.185547 A 0.08063404 0.08063404 0 0 1 88.634766 35.146484 A 0.08063404 0.08063404 0 0 1 88.673828 35.039062 A 0.08063404 0.08063404 0 0 1 88.734375 35.037109 z M 84.548828 37.003906 A 0.08063404 0.08063404 0 0 1 84.65625 37.042969 A 0.08063404 0.08063404 0 0 1 84.617188 37.150391 A 0.08063404 0.08063404 0 0 1 84.509766 37.111328 A 0.08063404 0.08063404 0 0 1 84.548828 37.003906 z M 80.484375 38.966797 A 0.08063404 0.08063404 0 0 1 80.53125 39.007812 A 0.08063404 0.08063404 0 0 1 80.492188 39.115234 A 0.08063404 0.08063404 0 0 1 80.384766 39.078125 A 0.08063404 0.08063404 0 0 1 80.423828 38.970703 A 0.08063404 0.08063404 0 0 1 80.484375 38.966797 z M 90.736328 39.060547 A 0.18814606 0.18814606 0 0 1 90.84375 39.15625 A 0.18814606 0.18814606 0 0 1 90.753906 39.40625 A 0.18814606 0.18814606 0 0 1 90.503906 39.318359 A 0.18814606 0.18814606 0 0 1 90.591797 39.068359 A 0.18814606 0.18814606 0 0 1 90.736328 39.060547 z M 76.302734 40.943359 A 0.07167469 0.07167469 0 0 1 76.398438 40.976562 A 0.07167469 0.07167469 0 0 1 76.363281 41.072266 A 0.07167469 0.07167469 0 0 1 76.267578 41.039062 A 0.07167469 0.07167469 0 0 1 76.302734 40.943359 z M 86.611328 41.025391 A 0.18814606 0.18814606 0 0 1 86.71875 41.121094 A 0.18814606 0.18814606 0 0 1 86.628906 41.373047 A 0.18814606 0.18814606 0 0 1 86.378906 41.283203 A 0.18814606 0.18814606 0 0 1 86.466797 41.033203 A 0.18814606 0.18814606 0 0 1 86.611328 41.025391 z M 72.177734 42.908203 A 0.07167469 0.07167469 0 0 1 72.273438 42.941406 A 0.07167469 0.07167469 0 0 1 72.238281 43.037109 A 0.07167469 0.07167469 0 0 1 72.142578 43.003906 A 0.07167469 0.07167469 0 0 1 72.177734 42.908203 z M 82.486328 42.990234 A 0.18814606 0.18814606 0 0 1 82.59375 43.085938 A 0.18814606 0.18814606 0 0 1 82.503906 43.337891 A 0.18814606 0.18814606 0 0 1 82.253906 43.248047 A 0.18814606 0.18814606 0 0 1 82.341797 42.998047 A 0.18814606 0.18814606 0 0 1 82.486328 42.990234 z M 68.052734 44.873047 A 0.07167469 0.07167469 0 0 1 68.148438 44.908203 A 0.07167469 0.07167469 0 0 1 68.113281 45.001953 A 0.07167469 0.07167469 0 0 1 68.017578 44.96875 A 0.07167469 0.07167469 0 0 1 68.052734 44.873047 z M 78.361328 44.955078 A 0.18814606 0.18814606 0 0 1 78.46875 45.052734 A 0.18814606 0.18814606 0 0 1 78.378906 45.302734 A 0.18814606 0.18814606 0 0 1 78.128906 45.212891 A 0.18814606 0.18814606 0 0 1 78.216797 44.962891 A 0.18814606 0.18814606 0 0 1 78.361328 44.955078 z M 74.095703 46.935547 A 0.17918673 0.17918673 0 0 1 74.333984 47.021484 A 0.17918673 0.17918673 0 0 1 74.25 47.259766 A 0.17918673 0.17918673 0 0 1 74.011719 47.175781 A 0.17918673 0.17918673 0 0 1 74.095703 46.935547 z M 84.261719 47.025391 A 0.2956581 0.2956581 0 0 1 84.654297 47.166016 A 0.2956581 0.2956581 0 0 1 84.515625 47.560547 A 0.2956581 0.2956581 0 0 1 84.121094 47.419922 A 0.2956581 0.2956581 0 0 1 84.261719 47.025391 z M 69.970703 48.902344 A 0.17918673 0.17918673 0 0 1 70.208984 48.986328 A 0.17918673 0.17918673 0 0 1 70.125 49.224609 A 0.17918673 0.17918673 0 0 1 69.886719 49.140625 A 0.17918673 0.17918673 0 0 1 69.970703 48.902344 z M 80.361328 48.978516 A 0.2956581 0.2956581 0 0 1 80.529297 49.130859 A 0.2956581 0.2956581 0 0 1 80.390625 49.525391 A 0.2956581 0.2956581 0 0 1 79.996094 49.384766 A 0.2956581 0.2956581 0 0 1 80.136719 48.990234 A 0.2956581 0.2956581 0 0 1 80.361328 48.978516 z M 65.845703 50.867188 A 0.17918673 0.17918673 0 0 1 66.083984 50.951172 A 0.17918673 0.17918673 0 0 1 66 51.189453 A 0.17918673 0.17918673 0 0 1 65.761719 51.105469 A 0.17918673 0.17918673 0 0 1 65.845703 50.867188 z M 76.011719 50.957031 A 0.2956581 0.2956581 0 0 1 76.404297 51.095703 A 0.2956581 0.2956581 0 0 1 76.265625 51.490234 A 0.2956581 0.2956581 0 0 1 75.871094 51.349609 A 0.2956581 0.2956581 0 0 1 76.011719 50.957031 z M 61.720703 52.832031 A 0.17918673 0.17918673 0 0 1 61.958984 52.916016 A 0.17918673 0.17918673 0 0 1 61.875 53.15625 A 0.17918673 0.17918673 0 0 1 61.636719 53.070312 A 0.17918673 0.17918673 0 0 1 61.720703 52.832031 z M 71.886719 52.921875 A 0.2956581 0.2956581 0 0 1 72.279297 53.060547 A 0.2956581 0.2956581 0 0 1 72.140625 53.455078 A 0.2956581 0.2956581 0 0 1 71.746094 53.316406 A 0.2956581 0.2956581 0 0 1 71.886719 52.921875 z M 82.365234 52.994141 A 0.41212946 0.41212946 0 0 1 82.599609 53.205078 A 0.41212946 0.41212946 0 0 1 82.40625 53.755859 A 0.41212946 0.41212946 0 0 1 81.855469 53.560547 A 0.41212946 0.41212946 0 0 1 82.050781 53.011719 A 0.41212946 0.41212946 0 0 1 82.365234 52.994141 z M 67.984375 54.882812 A 0.28669876 0.28669876 0 0 1 68.146484 55.029297 A 0.28669876 0.28669876 0 0 1 68.011719 55.412109 A 0.28669876 0.28669876 0 0 1 67.628906 55.277344 A 0.28669876 0.28669876 0 0 1 67.765625 54.894531 A 0.28669876 0.28669876 0 0 1 67.984375 54.882812 z M 78.240234 54.958984 A 0.41212946 0.41212946 0 0 1 78.474609 55.171875 A 0.41212946 0.41212946 0 0 1 78.28125 55.720703 A 0.41212946 0.41212946 0 0 1 77.730469 55.525391 A 0.41212946 0.41212946 0 0 1 77.925781 54.976562 A 0.41212946 0.41212946 0 0 1 78.240234 54.958984 z M 63.859375 56.847656 A 0.28669876 0.28669876 0 0 1 64.021484 56.996094 A 0.28669876 0.28669876 0 0 1 63.886719 57.376953 A 0.28669876 0.28669876 0 0 1 63.503906 57.242188 A 0.28669876 0.28669876 0 0 1 63.640625 56.859375 A 0.28669876 0.28669876 0 0 1 63.859375 56.847656 z M 74.113281 56.933594 A 0.40317011 0.40317011 0 0 1 74.341797 57.140625 A 0.40317011 0.40317011 0 0 1 74.152344 57.677734 A 0.40317011 0.40317011 0 0 1 73.615234 57.486328 A 0.40317011 0.40317011 0 0 1 73.804688 56.949219 A 0.40317011 0.40317011 0 0 1 74.113281 56.933594 z M 59.513672 58.824219 A 0.28669876 0.28669876 0 0 1 59.896484 58.960938 A 0.28669876 0.28669876 0 0 1 59.761719 59.341797 A 0.28669876 0.28669876 0 0 1 59.378906 59.207031 A 0.28669876 0.28669876 0 0 1 59.513672 58.824219 z M 69.988281 58.898438 A 0.40317011 0.40317011 0 0 1 70.216797 59.105469 A 0.40317011 0.40317011 0 0 1 70.027344 59.642578 A 0.40317011 0.40317011 0 0 1 69.488281 59.451172 A 0.40317011 0.40317011 0 0 1 69.679688 58.914062 A 0.40317011 0.40317011 0 0 1 69.988281 58.898438 z M 55.388672 60.791016 A 0.28669876 0.28669876 0 0 1 55.771484 60.925781 A 0.28669876 0.28669876 0 0 1 55.636719 61.308594 A 0.28669876 0.28669876 0 0 1 55.253906 61.171875 A 0.28669876 0.28669876 0 0 1 55.388672 60.791016 z M 65.554688 60.878906 A 0.40317011 0.40317011 0 0 1 66.091797 61.070312 A 0.40317011 0.40317011 0 0 1 65.902344 61.607422 A 0.40317011 0.40317011 0 0 1 65.363281 61.417969 A 0.40317011 0.40317011 0 0 1 65.554688 60.878906 z M 76.117188 60.949219 A 0.51964149 0.51964149 0 0 1 76.412109 61.214844 A 0.51964149 0.51964149 0 0 1 76.166016 61.908203 A 0.51964149 0.51964149 0 0 1 75.474609 61.662109 A 0.51964149 0.51964149 0 0 1 75.720703 60.96875 A 0.51964149 0.51964149 0 0 1 76.117188 60.949219 z M 83.080078 61.632812 L 82.064453 63.138672 A 0.62715354 0.62715354 0 0 1 82.599609 63.328125 A 0.62715354 0.62715354 0 0 1 82.302734 64.164062 A 0.62715354 0.62715354 0 0 1 81.550781 63.896484 L 76.443359 71.464844 A 0.73466558 0.73466558 0 0 1 76.064453 72.316406 A 0.73466558 0.73466558 0 0 1 75.861328 72.326172 L 72.228516 77.710938 L 85.835938 107.39453 L 85.955078 107.39453 A 1.6305992 1.6305992 0 0 1 85.873047 107.32031 A 1.6305992 1.6305992 0 0 1 86.644531 105.14648 A 1.6305992 1.6305992 0 0 1 88.816406 105.91797 A 1.6305992 1.6305992 0 0 1 88.779297 107.39062 L 92.519531 107.38672 A 1.7470707 1.7470707 0 0 1 92.683594 107.20312 A 1.7470707 1.7470707 0 0 1 94.296875 107.38281 L 95.972656 107.38086 A 1.7470707 1.7470707 0 0 1 96.808594 105.23633 A 1.7470707 1.7470707 0 0 1 99.136719 106.0625 A 1.7470707 1.7470707 0 0 1 99.191406 107.37695 L 102.77734 107.37305 A 1.8635421 1.8635421 0 0 1 102.84961 107.29102 A 1.8635421 1.8635421 0 0 1 104.44141 107.36914 L 105.15625 107.36914 L 83.080078 61.632812 z M 61.429688 62.845703 A 0.40317011 0.40317011 0 0 1 61.966797 63.035156 A 0.40317011 0.40317011 0 0 1 61.777344 63.572266 A 0.40317011 0.40317011 0 0 1 61.238281 63.382812 A 0.40317011 0.40317011 0 0 1 61.429688 62.845703 z M 71.992188 62.914062 A 0.51964149 0.51964149 0 0 1 72.287109 63.179688 A 0.51964149 0.51964149 0 0 1 72.041016 63.873047 A 0.51964149 0.51964149 0 0 1 71.349609 63.626953 A 0.51964149 0.51964149 0 0 1 71.595703 62.933594 A 0.51964149 0.51964149 0 0 1 71.992188 62.914062 z M 57.308594 64.818359 A 0.3942108 0.3942108 0 0 1 57.833984 65.003906 A 0.3942108 0.3942108 0 0 1 57.648438 65.529297 A 0.3942108 0.3942108 0 0 1 57.123047 65.34375 A 0.3942108 0.3942108 0 0 1 57.308594 64.818359 z M 67.474609 64.908203 A 0.51068216 0.51068216 0 0 1 68.154297 65.148438 A 0.51068216 0.51068216 0 0 1 67.912109 65.830078 A 0.51068216 0.51068216 0 0 1 67.232422 65.587891 A 0.51068216 0.51068216 0 0 1 67.474609 64.908203 z M 63.347656 66.873047 A 0.51068216 0.51068216 0 0 1 64.029297 67.115234 A 0.51068216 0.51068216 0 0 1 63.787109 67.794922 A 0.51068216 0.51068216 0 0 1 63.107422 67.552734 A 0.51068216 0.51068216 0 0 1 63.347656 66.873047 z M 84.248047 67.023438 A 0.74362491 0.74362491 0 0 1 84.669922 67.404297 A 0.74362491 0.74362491 0 0 1 84.318359 68.394531 A 0.74362491 0.74362491 0 0 1 83.328125 68.042969 A 0.74362491 0.74362491 0 0 1 83.679688 67.052734 A 0.74362491 0.74362491 0 0 1 84.248047 67.023438 z M 59.222656 68.837891 A 0.51068216 0.51068216 0 0 1 59.904297 69.080078 A 0.51068216 0.51068216 0 0 1 59.662109 69.759766 A 0.51068216 0.51068216 0 0 1 58.982422 69.519531 A 0.51068216 0.51068216 0 0 1 59.222656 68.837891 z M 69.388672 68.927734 A 0.62715354 0.62715354 0 0 1 70.224609 69.224609 A 0.62715354 0.62715354 0 0 1 69.927734 70.060547 A 0.62715354 0.62715354 0 0 1 69.091797 69.763672 A 0.62715354 0.62715354 0 0 1 69.388672 68.927734 z M 80.123047 68.988281 A 0.74362491 0.74362491 0 0 1 80.544922 69.369141 A 0.74362491 0.74362491 0 0 1 80.193359 70.359375 A 0.74362491 0.74362491 0 0 1 79.203125 70.007812 A 0.74362491 0.74362491 0 0 1 79.554688 69.017578 A 0.74362491 0.74362491 0 0 1 80.123047 68.988281 z M 65.267578 70.900391 A 0.61819419 0.61819419 0 0 1 66.091797 71.193359 A 0.61819419 0.61819419 0 0 1 65.798828 72.017578 A 0.61819419 0.61819419 0 0 1 64.974609 71.724609 A 0.61819419 0.61819419 0 0 1 65.267578 70.900391 z M 86.248047 71.046875 A 0.85113696 0.85113696 0 0 1 86.732422 71.482422 A 0.85113696 0.85113696 0 0 1 86.330078 72.617188 A 0.85113696 0.85113696 0 0 1 85.195312 72.214844 A 0.85113696 0.85113696 0 0 1 85.597656 71.080078 A 0.85113696 0.85113696 0 0 1 86.248047 71.046875 z M 61.142578 72.865234 A 0.61819419 0.61819419 0 0 1 61.966797 73.158203 A 0.61819419 0.61819419 0 0 1 61.673828 73.982422 A 0.61819419 0.61819419 0 0 1 60.849609 73.689453 A 0.61819419 0.61819419 0 0 1 61.142578 72.865234 z M 82.123047 73.011719 A 0.85113696 0.85113696 0 0 1 82.607422 73.447266 A 0.85113696 0.85113696 0 0 1 82.205078 74.582031 A 0.85113696 0.85113696 0 0 1 81.070312 74.179688 A 0.85113696 0.85113696 0 0 1 81.472656 73.044922 A 0.85113696 0.85113696 0 0 1 82.123047 73.011719 z M 57.490234 74.806641 A 0.61819419 0.61819419 0 0 1 57.841797 75.123047 A 0.61819419 0.61819419 0 0 1 57.548828 75.947266 A 0.61819419 0.61819419 0 0 1 56.724609 75.654297 A 0.61819419 0.61819419 0 0 1 57.017578 74.832031 A 0.61819419 0.61819419 0 0 1 57.490234 74.806641 z M 77.998047 74.976562 A 0.85113696 0.85113696 0 0 1 78.482422 75.412109 A 0.85113696 0.85113696 0 0 1 78.080078 76.546875 A 0.85113696 0.85113696 0 0 1 76.945312 76.144531 A 0.85113696 0.85113696 0 0 1 77.347656 75.009766 A 0.85113696 0.85113696 0 0 1 77.998047 74.976562 z M 88.251953 75.0625 A 0.96760828 0.96760828 0 0 1 88.802734 75.556641 A 0.96760828 0.96760828 0 0 1 88.345703 76.847656 A 0.96760828 0.96760828 0 0 1 87.056641 76.390625 A 0.96760828 0.96760828 0 0 1 87.513672 75.099609 A 0.96760828 0.96760828 0 0 1 88.251953 75.0625 z M 63.056641 76.886719 A 0.73466558 0.73466558 0 0 1 64.037109 77.232422 A 0.73466558 0.73466558 0 0 1 63.689453 78.212891 A 0.73466558 0.73466558 0 0 1 62.710938 77.865234 A 0.73466558 0.73466558 0 0 1 63.056641 76.886719 z M 73.873047 76.941406 A 0.85113696 0.85113696 0 0 1 74.357422 77.378906 A 0.85113696 0.85113696 0 0 1 73.955078 78.511719 A 0.85113696 0.85113696 0 0 1 72.820312 78.109375 A 0.85113696 0.85113696 0 0 1 73.222656 76.976562 A 0.85113696 0.85113696 0 0 1 73.873047 76.941406 z M 84.126953 77.027344 A 0.96760828 0.96760828 0 0 1 84.677734 77.523438 A 0.96760828 0.96760828 0 0 1 84.220703 78.8125 A 0.96760828 0.96760828 0 0 1 82.929688 78.355469 A 0.96760828 0.96760828 0 0 1 83.388672 77.064453 A 0.96760828 0.96760828 0 0 1 84.126953 77.027344 z M 59.490234 78.830078 A 0.72570624 0.72570624 0 0 1 59.904297 79.203125 A 0.72570624 0.72570624 0 0 1 59.560547 80.169922 A 0.72570624 0.72570624 0 0 1 58.59375 79.826172 A 0.72570624 0.72570624 0 0 1 58.935547 78.859375 A 0.72570624 0.72570624 0 0 1 59.490234 78.830078 z M 80 79 A 0.95864901 0.95864901 0 0 1 80.544922 79.492188 A 0.95864901 0.95864901 0 0 1 80.091797 80.769531 A 0.95864901 0.95864901 0 0 1 78.814453 80.316406 A 0.95864901 0.95864901 0 0 1 79.267578 79.039062 A 0.95864901 0.95864901 0 0 1 80 79 z M 90.255859 79.076172 A 1.0840797 1.0840797 0 0 1 90.873047 79.632812 A 1.0840797 1.0840797 0 0 1 90.361328 81.078125 A 1.0840797 1.0840797 0 0 1 88.916016 80.564453 A 1.0840797 1.0840797 0 0 1 89.427734 79.119141 A 1.0840797 1.0840797 0 0 1 90.255859 79.076172 z M 75.875 80.964844 A 0.95864901 0.95864901 0 0 1 76.419922 81.457031 A 0.95864901 0.95864901 0 0 1 75.966797 82.734375 A 0.95864901 0.95864901 0 0 1 74.689453 82.28125 A 0.95864901 0.95864901 0 0 1 75.142578 81.003906 A 0.95864901 0.95864901 0 0 1 75.875 80.964844 z M 86.128906 81.050781 A 1.0751203 1.0751203 0 0 1 86.740234 81.601562 A 1.0751203 1.0751203 0 0 1 86.232422 83.035156 A 1.0751203 1.0751203 0 0 1 84.798828 82.525391 A 1.0751203 1.0751203 0 0 1 85.306641 81.09375 A 1.0751203 1.0751203 0 0 1 86.128906 81.050781 z M 61.494141 82.845703 A 0.84217757 0.84217757 0 0 1 61.974609 83.277344 A 0.84217757 0.84217757 0 0 1 61.576172 84.400391 A 0.84217757 0.84217757 0 0 1 60.453125 84.001953 A 0.84217757 0.84217757 0 0 1 60.851562 82.878906 A 0.84217757 0.84217757 0 0 1 61.494141 82.845703 z M 82.003906 83.015625 A 1.0751203 1.0751203 0 0 1 82.615234 83.566406 A 1.0751203 1.0751203 0 0 1 82.107422 85 A 1.0751203 1.0751203 0 0 1 80.673828 84.492188 A 1.0751203 1.0751203 0 0 1 81.181641 83.058594 A 1.0751203 1.0751203 0 0 1 82.003906 83.015625 z M 92.257812 83.101562 A 1.1915919 1.1915919 0 0 1 92.935547 83.710938 A 1.1915919 1.1915919 0 0 1 92.371094 85.298828 A 1.1915919 1.1915919 0 0 1 90.783203 84.736328 A 1.1915919 1.1915919 0 0 1 91.347656 83.148438 A 1.1915919 1.1915919 0 0 1 92.257812 83.101562 z M 57.369141 84.810547 A 0.84217757 0.84217757 0 0 1 57.849609 85.242188 A 0.84217757 0.84217757 0 0 1 57.451172 86.365234 A 0.84217757 0.84217757 0 0 1 56.328125 85.966797 A 0.84217757 0.84217757 0 0 1 56.726562 84.84375 A 0.84217757 0.84217757 0 0 1 57.369141 84.810547 z M 77.878906 84.980469 A 1.0751203 1.0751203 0 0 1 78.490234 85.53125 A 1.0751203 1.0751203 0 0 1 77.982422 86.964844 A 1.0751203 1.0751203 0 0 1 76.548828 86.457031 A 1.0751203 1.0751203 0 0 1 77.056641 85.023438 A 1.0751203 1.0751203 0 0 1 77.878906 84.980469 z M 88.132812 85.066406 A 1.1915919 1.1915919 0 0 1 88.810547 85.675781 A 1.1915919 1.1915919 0 0 1 88.246094 87.265625 A 1.1915919 1.1915919 0 0 1 86.658203 86.701172 A 1.1915919 1.1915919 0 0 1 87.222656 85.113281 A 1.1915919 1.1915919 0 0 1 88.132812 85.066406 z M 84.007812 87.03125 A 1.1915919 1.1915919 0 0 1 84.685547 87.640625 A 1.1915919 1.1915919 0 0 1 84.121094 89.230469 A 1.1915919 1.1915919 0 0 1 82.533203 88.666016 A 1.1915919 1.1915919 0 0 1 83.097656 87.078125 A 1.1915919 1.1915919 0 0 1 84.007812 87.03125 z M 94.259766 87.125 A 1.2991039 1.2991039 0 0 1 94.998047 87.791016 A 1.2991039 1.2991039 0 0 1 94.382812 89.521484 A 1.2991039 1.2991039 0 0 1 92.652344 88.908203 A 1.2991039 1.2991039 0 0 1 93.265625 87.175781 A 1.2991039 1.2991039 0 0 1 94.259766 87.125 z M 79.878906 89.003906 A 1.1826324 1.1826324 0 0 1 80.552734 89.611328 A 1.1826324 1.1826324 0 0 1 79.992188 91.1875 A 1.1826324 1.1826324 0 0 1 78.416016 90.626953 A 1.1826324 1.1826324 0 0 1 78.976562 89.050781 A 1.1826324 1.1826324 0 0 1 79.878906 89.003906 z M 90.134766 89.089844 A 1.2991039 1.2991039 0 0 1 90.873047 89.755859 A 1.2991039 1.2991039 0 0 1 90.257812 91.486328 A 1.2991039 1.2991039 0 0 1 88.527344 90.873047 A 1.2991039 1.2991039 0 0 1 89.140625 89.140625 A 1.2991039 1.2991039 0 0 1 90.134766 89.089844 z M 86.009766 91.054688 A 1.2991039 1.2991039 0 0 1 86.748047 91.720703 A 1.2991039 1.2991039 0 0 1 86.132812 93.451172 A 1.2991039 1.2991039 0 0 1 84.402344 92.837891 A 1.2991039 1.2991039 0 0 1 85.015625 91.105469 A 1.2991039 1.2991039 0 0 1 86.009766 91.054688 z M 96.263672 91.140625 A 1.4155751 1.4155751 0 0 1 97.068359 91.865234 A 1.4155751 1.4155751 0 0 1 96.398438 93.751953 A 1.4155751 1.4155751 0 0 1 94.511719 93.082031 A 1.4155751 1.4155751 0 0 1 95.181641 91.195312 A 1.4155751 1.4155751 0 0 1 96.263672 91.140625 z M 81.882812 93.019531 A 1.2991039 1.2991039 0 0 1 82.623047 93.685547 A 1.2991039 1.2991039 0 0 1 82.007812 95.417969 A 1.2991039 1.2991039 0 0 1 80.277344 94.802734 A 1.2991039 1.2991039 0 0 1 80.890625 93.072266 A 1.2991039 1.2991039 0 0 1 81.882812 93.019531 z M 92.134766 93.113281 A 1.4066159 1.4066159 0 0 1 92.935547 93.833984 A 1.4066159 1.4066159 0 0 1 92.269531 95.708984 A 1.4066159 1.4066159 0 0 1 90.394531 95.044922 A 1.4066159 1.4066159 0 0 1 91.060547 93.169922 A 1.4066159 1.4066159 0 0 1 92.134766 93.113281 z M 88.009766 95.078125 A 1.4066159 1.4066159 0 0 1 88.810547 95.798828 A 1.4066159 1.4066159 0 0 1 88.144531 97.673828 A 1.4066159 1.4066159 0 0 1 86.269531 97.009766 A 1.4066159 1.4066159 0 0 1 86.935547 95.134766 A 1.4066159 1.4066159 0 0 1 88.009766 95.078125 z M 98.263672 95.164062 A 1.5230872 1.5230872 0 0 1 99.130859 95.943359 A 1.5230872 1.5230872 0 0 1 98.410156 97.974609 A 1.5230872 1.5230872 0 0 1 96.380859 97.253906 A 1.5230872 1.5230872 0 0 1 97.099609 95.224609 A 1.5230872 1.5230872 0 0 1 98.263672 95.164062 z M 83.884766 97.042969 A 1.4066159 1.4066159 0 0 1 84.683594 97.763672 A 1.4066159 1.4066159 0 0 1 84.019531 99.638672 A 1.4066159 1.4066159 0 0 1 82.144531 98.974609 A 1.4066159 1.4066159 0 0 1 82.810547 97.099609 A 1.4066159 1.4066159 0 0 1 83.884766 97.042969 z M 94.138672 97.128906 A 1.5230872 1.5230872 0 0 1 95.005859 97.908203 A 1.5230872 1.5230872 0 0 1 94.285156 99.939453 A 1.5230872 1.5230872 0 0 1 92.255859 99.21875 A 1.5230872 1.5230872 0 0 1 92.974609 97.189453 A 1.5230872 1.5230872 0 0 1 94.138672 97.128906 z M 90.013672 99.09375 A 1.5230872 1.5230872 0 0 1 90.880859 99.875 A 1.5230872 1.5230872 0 0 1 90.160156 101.9043 A 1.5230872 1.5230872 0 0 1 88.130859 101.18359 A 1.5230872 1.5230872 0 0 1 88.849609 99.154297 A 1.5230872 1.5230872 0 0 1 90.013672 99.09375 z M 100.26758 99.179688 A 1.6395586 1.6395586 0 0 1 101.20117 100.01953 A 1.6395586 1.6395586 0 0 1 100.42578 102.20508 A 1.6395586 1.6395586 0 0 1 98.240234 101.42969 A 1.6395586 1.6395586 0 0 1 99.015625 99.244141 A 1.6395586 1.6395586 0 0 1 100.26758 99.179688 z M 85.888672 101.05859 A 1.5230872 1.5230872 0 0 1 86.753906 101.83984 A 1.5230872 1.5230872 0 0 1 86.035156 103.86914 A 1.5230872 1.5230872 0 0 1 84.003906 103.15039 A 1.5230872 1.5230872 0 0 1 84.724609 101.11914 A 1.5230872 1.5230872 0 0 1 85.888672 101.05859 z M 96.142578 101.14453 A 1.6395586 1.6395586 0 0 1 97.076172 101.98438 A 1.6395586 1.6395586 0 0 1 96.300781 104.16992 A 1.6395586 1.6395586 0 0 1 94.115234 103.39453 A 1.6395586 1.6395586 0 0 1 94.890625 101.20898 A 1.6395586 1.6395586 0 0 1 96.142578 101.14453 z M 92.015625 103.11719 A 1.6305992 1.6305992 0 0 1 92.941406 103.95312 A 1.6305992 1.6305992 0 0 1 92.171875 106.12695 A 1.6305992 1.6305992 0 0 1 89.998047 105.35547 A 1.6305992 1.6305992 0 0 1 90.769531 103.18164 A 1.6305992 1.6305992 0 0 1 92.015625 103.11719 z M 102.26953 103.20312 A 1.7470707 1.7470707 0 0 1 103.26172 104.09766 A 1.7470707 1.7470707 0 0 1 102.4375 106.42578 A 1.7470707 1.7470707 0 0 1 100.10742 105.59961 A 1.7470707 1.7470707 0 0 1 100.93359 103.27148 A 1.7470707 1.7470707 0 0 1 102.26953 103.20312 z " />
    <path
       id="path3-8"
       style="font-size:133.079px;line-height:1.25;letter-spacing:0px;word-spacing:0px;fill:#f1f3e9;fill-opacity:1;stroke-width:3.268"
       d="M 50.587891 21.173828 L 29.953125 33.431641 L 29.921875 79.558594 L 39.919922 93.0625 A 0.83321829 0.83321829 0 0 1 40.230469 92.716797 A 0.83321829 0.83321829 0 0 1 41.341797 93.111328 A 0.83321829 0.83321829 0 0 1 40.947266 94.222656 A 0.83321829 0.83321829 0 0 1 40.787109 94.230469 L 42.630859 96.720703 A 0.94073033 0.94073033 0 0 1 43.404297 97.189453 A 0.94073033 0.94073033 0 0 1 43.453125 97.832031 L 50.517578 107.37305 L 50.519531 104.9707 A 1.1736732 1.1736732 0 0 1 49.550781 104.38477 A 1.1736732 1.1736732 0 0 1 50.105469 102.82031 A 1.1736732 1.1736732 0 0 1 50.521484 102.79883 L 50.527344 94.558594 A 0.94968962 0.94968962 0 0 1 49.947266 94.072266 A 0.94968962 0.94968962 0 0 1 50.396484 92.806641 A 0.94968962 0.94968962 0 0 1 50.529297 92.800781 L 50.537109 83.935547 A 0.72570624 0.72570624 0 0 1 50.34375 83.761719 A 0.72570624 0.72570624 0 0 1 50.537109 83.216797 L 50.587891 21.173828 z M 47.431641 54.710938 A 0.06271536 0.06271536 0 0 1 47.515625 54.742188 A 0.06271536 0.06271536 0 0 1 47.484375 54.824219 A 0.06271536 0.06271536 0 0 1 47.402344 54.794922 A 0.06271536 0.06271536 0 0 1 47.431641 54.710938 z M 43.310547 56.685547 A 0.05375602 0.05375602 0 0 1 43.380859 56.710938 A 0.05375602 0.05375602 0 0 1 43.355469 56.78125 A 0.05375602 0.05375602 0 0 1 43.285156 56.755859 A 0.05375602 0.05375602 0 0 1 43.310547 56.685547 z M 39.185547 58.650391 A 0.05375602 0.05375602 0 0 1 39.255859 58.675781 A 0.05375602 0.05375602 0 0 1 39.230469 58.748047 A 0.05375602 0.05375602 0 0 1 39.160156 58.722656 A 0.05375602 0.05375602 0 0 1 39.185547 58.650391 z M 49.480469 58.732422 A 0.17022739 0.17022739 0 0 1 49.576172 58.820312 A 0.17022739 0.17022739 0 0 1 49.496094 59.046875 A 0.17022739 0.17022739 0 0 1 49.269531 58.966797 A 0.17022739 0.17022739 0 0 1 49.349609 58.740234 A 0.17022739 0.17022739 0 0 1 49.480469 58.732422 z M 35.060547 60.615234 A 0.05375602 0.05375602 0 0 1 35.130859 60.640625 A 0.05375602 0.05375602 0 0 1 35.105469 60.712891 A 0.05375602 0.05375602 0 0 1 35.035156 60.6875 A 0.05375602 0.05375602 0 0 1 35.060547 60.615234 z M 45.355469 60.697266 A 0.17022739 0.17022739 0 0 1 45.451172 60.785156 A 0.17022739 0.17022739 0 0 1 45.371094 61.011719 A 0.17022739 0.17022739 0 0 1 45.144531 60.931641 A 0.17022739 0.17022739 0 0 1 45.224609 60.705078 A 0.17022739 0.17022739 0 0 1 45.355469 60.697266 z M 30.935547 62.580078 A 0.05375602 0.05375602 0 0 1 31.005859 62.605469 A 0.05375602 0.05375602 0 0 1 30.980469 62.677734 A 0.05375602 0.05375602 0 0 1 30.910156 62.652344 A 0.05375602 0.05375602 0 0 1 30.935547 62.580078 z M 41.103516 62.677734 A 0.16126805 0.16126805 0 0 1 41.318359 62.753906 A 0.16126805 0.16126805 0 0 1 41.242188 62.96875 A 0.16126805 0.16126805 0 0 1 41.027344 62.892578 A 0.16126805 0.16126805 0 0 1 41.103516 62.677734 z M 36.978516 64.642578 A 0.16126805 0.16126805 0 0 1 37.193359 64.71875 A 0.16126805 0.16126805 0 0 1 37.117188 64.935547 A 0.16126805 0.16126805 0 0 1 36.902344 64.857422 A 0.16126805 0.16126805 0 0 1 36.978516 64.642578 z M 47.355469 64.722656 A 0.27773941 0.27773941 0 0 1 47.513672 64.865234 A 0.27773941 0.27773941 0 0 1 47.382812 65.234375 A 0.27773941 0.27773941 0 0 1 47.013672 65.103516 A 0.27773941 0.27773941 0 0 1 47.144531 64.732422 A 0.27773941 0.27773941 0 0 1 47.355469 64.722656 z M 32.853516 66.609375 A 0.16126805 0.16126805 0 0 1 33.068359 66.685547 A 0.16126805 0.16126805 0 0 1 32.992188 66.900391 A 0.16126805 0.16126805 0 0 1 32.777344 66.824219 A 0.16126805 0.16126805 0 0 1 32.853516 66.609375 z M 43.019531 66.697266 A 0.27773941 0.27773941 0 0 1 43.388672 66.830078 A 0.27773941 0.27773941 0 0 1 43.257812 67.199219 A 0.27773941 0.27773941 0 0 1 42.888672 67.068359 A 0.27773941 0.27773941 0 0 1 43.019531 66.697266 z M 39.105469 68.652344 A 0.27773941 0.27773941 0 0 1 39.263672 68.794922 A 0.27773941 0.27773941 0 0 1 39.132812 69.164062 A 0.27773941 0.27773941 0 0 1 38.761719 69.033203 A 0.27773941 0.27773941 0 0 1 38.894531 68.664062 A 0.27773941 0.27773941 0 0 1 39.105469 68.652344 z M 49.361328 68.736328 A 0.3942108 0.3942108 0 0 1 49.583984 68.939453 A 0.3942108 0.3942108 0 0 1 49.398438 69.464844 A 0.3942108 0.3942108 0 0 1 48.873047 69.279297 A 0.3942108 0.3942108 0 0 1 49.058594 68.753906 A 0.3942108 0.3942108 0 0 1 49.361328 68.736328 z M 34.769531 70.628906 A 0.27773941 0.27773941 0 0 1 35.138672 70.759766 A 0.27773941 0.27773941 0 0 1 35.007812 71.130859 A 0.27773941 0.27773941 0 0 1 34.636719 70.998047 A 0.27773941 0.27773941 0 0 1 34.769531 70.628906 z M 45.236328 70.703125 A 0.3942108 0.3942108 0 0 1 45.458984 70.904297 A 0.3942108 0.3942108 0 0 1 45.273438 71.429688 A 0.3942108 0.3942108 0 0 1 44.748047 71.244141 A 0.3942108 0.3942108 0 0 1 44.933594 70.71875 A 0.3942108 0.3942108 0 0 1 45.236328 70.703125 z M 30.648438 72.601562 A 0.26878008 0.26878008 0 0 1 31.005859 72.728516 A 0.26878008 0.26878008 0 0 1 30.878906 73.087891 A 0.26878008 0.26878008 0 0 1 30.521484 72.960938 A 0.26878008 0.26878008 0 0 1 30.648438 72.601562 z M 41.107422 72.675781 A 0.38525146 0.38525146 0 0 1 41.326172 72.873047 A 0.38525146 0.38525146 0 0 1 41.144531 73.386719 A 0.38525146 0.38525146 0 0 1 40.630859 73.205078 A 0.38525146 0.38525146 0 0 1 40.8125 72.691406 A 0.38525146 0.38525146 0 0 1 41.107422 72.675781 z M 36.982422 74.640625 A 0.38525146 0.38525146 0 0 1 37.201172 74.837891 A 0.38525146 0.38525146 0 0 1 37.019531 75.351562 A 0.38525146 0.38525146 0 0 1 36.505859 75.169922 A 0.38525146 0.38525146 0 0 1 36.6875 74.65625 A 0.38525146 0.38525146 0 0 1 36.982422 74.640625 z M 47.236328 74.726562 A 0.50172283 0.50172283 0 0 1 47.521484 74.982422 A 0.50172283 0.50172283 0 0 1 47.285156 75.652344 A 0.50172283 0.50172283 0 0 1 46.615234 75.414062 A 0.50172283 0.50172283 0 0 1 46.853516 74.746094 A 0.50172283 0.50172283 0 0 1 47.236328 74.726562 z M 32.857422 76.605469 A 0.38525146 0.38525146 0 0 1 33.076172 76.804688 A 0.38525146 0.38525146 0 0 1 32.894531 77.316406 A 0.38525146 0.38525146 0 0 1 32.380859 77.134766 A 0.38525146 0.38525146 0 0 1 32.5625 76.621094 A 0.38525146 0.38525146 0 0 1 32.857422 76.605469 z M 43.111328 76.691406 A 0.50172283 0.50172283 0 0 1 43.396484 76.949219 A 0.50172283 0.50172283 0 0 1 43.160156 77.617188 A 0.50172283 0.50172283 0 0 1 42.490234 77.380859 A 0.50172283 0.50172283 0 0 1 42.728516 76.710938 A 0.50172283 0.50172283 0 0 1 43.111328 76.691406 z M 38.986328 78.65625 A 0.50172283 0.50172283 0 0 1 39.271484 78.914062 A 0.50172283 0.50172283 0 0 1 39.035156 79.582031 A 0.50172283 0.50172283 0 0 1 38.365234 79.345703 A 0.50172283 0.50172283 0 0 1 38.603516 78.675781 A 0.50172283 0.50172283 0 0 1 38.986328 78.65625 z M 49.240234 78.742188 A 0.61819419 0.61819419 0 0 1 49.591797 79.058594 A 0.61819419 0.61819419 0 0 1 49.300781 79.882812 A 0.61819419 0.61819419 0 0 1 48.476562 79.589844 A 0.61819419 0.61819419 0 0 1 48.767578 78.765625 A 0.61819419 0.61819419 0 0 1 49.240234 78.742188 z M 34.482422 80.650391 A 0.49276347 0.49276347 0 0 1 35.138672 80.882812 A 0.49276347 0.49276347 0 0 1 34.90625 81.539062 A 0.49276347 0.49276347 0 0 1 34.248047 81.306641 A 0.49276347 0.49276347 0 0 1 34.482422 80.650391 z M 45.113281 80.714844 A 0.60923486 0.60923486 0 0 1 45.458984 81.027344 A 0.60923486 0.60923486 0 0 1 45.171875 81.839844 A 0.60923486 0.60923486 0 0 1 44.359375 81.550781 A 0.60923486 0.60923486 0 0 1 44.646484 80.740234 A 0.60923486 0.60923486 0 0 1 45.113281 80.714844 z M 40.988281 82.679688 A 0.60923486 0.60923486 0 0 1 41.333984 82.992188 A 0.60923486 0.60923486 0 0 1 41.044922 83.804688 A 0.60923486 0.60923486 0 0 1 40.234375 83.515625 A 0.60923486 0.60923486 0 0 1 40.521484 82.705078 A 0.60923486 0.60923486 0 0 1 40.988281 82.679688 z M 36.863281 84.644531 A 0.60923486 0.60923486 0 0 1 37.208984 84.957031 A 0.60923486 0.60923486 0 0 1 36.919922 85.769531 A 0.60923486 0.60923486 0 0 1 36.109375 85.482422 A 0.60923486 0.60923486 0 0 1 36.396484 84.669922 A 0.60923486 0.60923486 0 0 1 36.863281 84.644531 z M 47.117188 84.730469 A 0.72570624 0.72570624 0 0 1 47.529297 85.101562 A 0.72570624 0.72570624 0 0 1 47.185547 86.070312 A 0.72570624 0.72570624 0 0 1 46.21875 85.726562 A 0.72570624 0.72570624 0 0 1 46.5625 84.759766 A 0.72570624 0.72570624 0 0 1 47.117188 84.730469 z M 42.988281 86.703125 A 0.71674691 0.71674691 0 0 1 43.396484 87.072266 A 0.71674691 0.71674691 0 0 1 43.056641 88.027344 A 0.71674691 0.71674691 0 0 1 42.101562 87.6875 A 0.71674691 0.71674691 0 0 1 42.441406 86.732422 A 0.71674691 0.71674691 0 0 1 42.988281 86.703125 z M 38.316406 88.697266 A 0.71674691 0.71674691 0 0 1 39.271484 89.037109 A 0.71674691 0.71674691 0 0 1 38.931641 89.992188 A 0.71674691 0.71674691 0 0 1 37.976562 89.652344 A 0.71674691 0.71674691 0 0 1 38.316406 88.697266 z M 49.117188 88.753906 A 0.83321829 0.83321829 0 0 1 49.591797 89.181641 A 0.83321829 0.83321829 0 0 1 49.197266 90.291016 A 0.83321829 0.83321829 0 0 1 48.087891 89.898438 A 0.83321829 0.83321829 0 0 1 48.480469 88.787109 A 0.83321829 0.83321829 0 0 1 49.117188 88.753906 z M 44.992188 90.71875 A 0.83321829 0.83321829 0 0 1 45.466797 91.146484 A 0.83321829 0.83321829 0 0 1 45.072266 92.257812 A 0.83321829 0.83321829 0 0 1 43.962891 91.863281 A 0.83321829 0.83321829 0 0 1 44.355469 90.751953 A 0.83321829 0.83321829 0 0 1 44.992188 90.71875 z M 46.996094 94.734375 A 0.94968962 0.94968962 0 0 1 47.537109 95.220703 A 0.94968962 0.94968962 0 0 1 47.087891 96.486328 A 0.94968962 0.94968962 0 0 1 45.822266 96.039062 A 0.94968962 0.94968962 0 0 1 46.271484 94.771484 A 0.94968962 0.94968962 0 0 1 46.996094 94.734375 z M 48.998047 98.757812 A 1.0572017 1.0572017 0 0 1 49.599609 99.300781 A 1.0572017 1.0572017 0 0 1 49.099609 100.70898 A 1.0572017 1.0572017 0 0 1 47.689453 100.20898 A 1.0572017 1.0572017 0 0 1 48.189453 98.800781 A 1.0572017 1.0572017 0 0 1 48.998047 98.757812 z " />
  </g>
</svg>
