<?xml version="1.0" encoding="UTF-8" standalone="no"?>
<svg
   viewBox="0 0 3668.157 320"
   version="1.1"
   id="svg1"
   sodipodi:docname="wave.svg"
   width="3668.157"
   height="320"
   inkscape:version="1.3.2 (091e20e, 2023-11-25, custom)"
   xmlns:inkscape="http://www.inkscape.org/namespaces/inkscape"
   xmlns:sodipodi="http://sodipodi.sourceforge.net/DTD/sodipodi-0.dtd"
   xmlns="http://www.w3.org/2000/svg"
   xmlns:svg="http://www.w3.org/2000/svg">
  <defs
     id="defs1" />
  <sodipodi:namedview
     id="namedview1"
     pagecolor="#505050"
     bordercolor="#eeeeee"
     borderopacity="1"
     inkscape:showpageshadow="0"
     inkscape:pageopacity="0"
     inkscape:pagecheckerboard="0"
     inkscape:deskcolor="#505050"
     inkscape:zoom="0.32386836"
     inkscape:cx="1451.2069"
     inkscape:cy="26.245231"
     inkscape:window-width="1920"
     inkscape:window-height="1111"
     inkscape:window-x="-9"
     inkscape:window-y="410"
     inkscape:window-maximized="1"
     inkscape:current-layer="svg1" />
  <path
     id="path1"
     style="stroke-width:0.550004;fill:#34679b;fill-opacity:1"
     d="M 2946.0566 143.9375 L 2946.0566 179.13672 L 2922.7363 179.13672 L 2922.7363 267.13672 L 2899.4727 267.13672 L 2899.4727 284.73828 L 2879.002 284.73828 L 2879 214.40234 L 2863.9902 214.40234 L 2863.9902 302.40234 L 2840.7246 302.40234 L 2840.7246 179.20117 L 2817.4062 179.20117 L 2817.4062 144.00195 L 2794.1406 144.00195 L 2794.1406 196.80273 L 2770.8203 196.80273 L 2770.8203 267.20312 L 2747.5 267.20312 L 2747.5 196.80273 L 2724.2344 196.80273 L 2724.2344 267.20312 L 2700.9141 267.20312 L 2700.9141 161.60156 L 2677.6484 161.60156 L 2677.6484 179.20117 L 2654.3301 179.20117 L 2631.0645 179.20117 L 2631.0645 249.60156 L 2607.7441 249.60156 L 2607.7441 232.00195 L 2584.4785 232.00195 L 2584.4785 161.60156 L 2561.1582 161.60156 L 2561.1582 284.80273 L 2537.8926 284.80273 L 2537.8926 249.60156 L 2514.5723 249.60156 L 2514.5723 284.80273 L 2491.3086 284.80273 L 2491.3086 179.20117 L 2467.9883 179.20117 L 2467.9883 144.00195 L 2444.7227 144.00195 L 2444.7227 179.20117 L 2421.4023 179.20117 L 2421.4023 267.20312 L 2398.1367 267.20312 L 2398.1367 284.80273 L 2375.2559 284.80273 L 2375.2559 284.80078 L 2351.9355 284.80078 L 2351.9355 214.40039 L 2328.6699 214.40039 L 2328.6699 144 L 2305.3496 144 L 2305.3496 302.40039 L 2282.084 302.40039 L 2282.084 320.00195 L 2305.3496 320.00195 L 2328.6699 320.00195 L 2351.9355 320.00195 L 2374.8164 320.00195 L 2375.2559 320.00195 L 2398.1367 320.00195 L 2421.4023 320.00195 L 2444.7227 320.00195 L 2467.9883 320.00195 L 2491.3086 320.00195 L 2514.5723 320.00195 L 2537.8926 320.00195 L 2561.1582 320.00195 L 2584.4785 320.00195 L 2607.7441 320.00195 L 2631.0645 320.00195 L 2654.3301 320.00195 L 2677.6484 320.00195 L 2700.9141 320.00195 L 2724.2344 320.00195 L 2747.5 320.00195 L 2770.8203 320.00195 L 2794.1406 320.00195 L 2817.4062 320.00195 L 2840.7246 320.00195 L 2863.9902 320.00195 L 2879.0039 320.00195 L 2879.0039 319.9375 L 2899.4727 319.9375 L 2922.7363 319.9375 L 2946.0566 319.9375 L 2969.3223 319.9375 L 2992.6426 319.9375 L 3015.9082 319.9375 L 3039.2285 319.9375 L 3062.4922 319.9375 L 3085.8125 319.9375 L 3109.0781 319.9375 L 3132.3984 319.9375 L 3155.6641 319.9375 L 3178.9844 319.9375 L 3202.248 319.9375 L 3225.5684 319.9375 L 3248.834 319.9375 L 3272.1543 319.9375 L 3295.4746 319.9375 L 3318.7402 319.9375 L 3342.0605 319.9375 L 3365.3242 319.9375 L 3388.6445 319.9375 L 3411.9102 319.9375 L 3435.2305 319.9375 L 3458.4961 319.9375 L 3481.8164 319.9375 L 3505.0801 319.9375 L 3528.4004 319.9375 L 3551.666 319.9375 L 3551.666 249.53711 L 3528.4004 249.53711 L 3528.4004 267.13672 L 3505.0801 267.13672 L 3505.0801 161.53711 L 3481.8164 161.53711 L 3481.8164 143.9375 L 3458.4961 143.9375 L 3458.4961 267.13672 L 3435.2305 267.13672 L 3435.2305 196.73633 L 3411.9102 196.73633 L 3411.9102 214.33789 L 3388.6445 214.33789 L 3365.3242 214.33789 L 3365.3242 302.33789 L 3342.0605 302.33789 L 3342.0605 179.13672 L 3318.7402 179.13672 L 3318.7402 143.9375 L 3295.4746 143.9375 L 3295.4746 196.73633 L 3272.1543 196.73633 L 3272.1543 267.13672 L 3248.834 267.13672 L 3248.834 196.73633 L 3225.5684 196.73633 L 3225.5684 267.13672 L 3202.248 267.13672 L 3202.248 161.53711 L 3178.9844 161.53711 L 3178.9844 179.13672 L 3155.6641 179.13672 L 3132.3984 179.13672 L 3132.3984 249.53711 L 3109.0781 249.53711 L 3109.0781 231.9375 L 3085.8125 231.9375 L 3085.8125 161.53711 L 3062.4922 161.53711 L 3062.4922 284.73828 L 3039.2285 284.73828 L 3039.2285 249.53711 L 3015.9082 249.53711 L 3015.9082 284.73828 L 2992.6426 284.73828 L 2992.6426 179.13672 L 2969.3223 179.13672 L 2969.3223 143.9375 L 2946.0566 143.9375 z M 3598.252 143.9375 L 3598.252 302.33789 L 3574.9863 302.33789 L 3574.9863 319.9375 L 3598.252 319.9375 L 3621.5723 319.9375 L 3644.8379 319.9375 L 3668.1562 319.9375 L 3668.1562 284.73828 L 3644.8379 284.73828 L 3644.8379 214.33789 L 3621.5723 214.33789 L 3621.5723 143.9375 L 3598.252 143.9375 z M 69.90625 144 L 69.90625 179.20117 L 46.585938 179.20117 L 46.585938 267.20117 L 23.320312 267.20117 L 23.320312 284.80078 L 0 284.80078 L 0 320.00195 L 23.320312 320.00195 L 46.585938 320.00195 L 69.90625 320.00195 L 93.169922 320.00195 L 116.49023 320.00195 L 139.75586 320.00195 L 163.07617 320.00195 L 186.3418 320.00195 L 209.66211 320.00195 L 232.92578 320.00195 L 256.24609 320.00195 L 279.51172 320.00195 L 302.83203 320.00195 L 326.09766 320.00195 L 349.41797 320.00195 L 372.68164 320.00195 L 396.00195 320.00195 L 419.32227 320.00195 L 442.58789 320.00195 L 465.9082 320.00195 L 489.17383 320.00195 L 512.49414 320.00195 L 535.75781 320.00195 L 559.07812 320.00195 L 582.34375 320.00195 L 605.66406 320.00195 L 628.92969 320.00195 L 652.25 320.00195 L 675.51562 320.00195 L 675.51562 249.60156 L 652.25 249.60156 L 652.25 267.20117 L 628.92969 267.20117 L 628.92969 161.59961 L 605.66406 161.59961 L 605.66406 144 L 582.34375 144 L 582.34375 267.20117 L 559.07812 267.20117 L 559.07812 196.80078 L 535.75781 196.80078 L 535.75781 214.40039 L 512.49414 214.40039 L 489.17383 214.40039 L 489.17383 302.40039 L 465.9082 302.40039 L 465.9082 179.20117 L 442.58789 179.20117 L 442.58789 144 L 419.32227 144 L 419.32227 196.80078 L 396.00195 196.80078 L 396.00195 267.20117 L 372.68164 267.20117 L 372.68164 196.80078 L 349.41797 196.80078 L 349.41797 267.20117 L 326.09766 267.20117 L 326.09766 161.59961 L 302.83203 161.59961 L 302.83203 179.20117 L 279.51172 179.20117 L 256.24609 179.20117 L 256.24609 249.60156 L 232.92578 249.60156 L 232.92578 232 L 209.66211 232 L 209.66211 161.59961 L 186.3418 161.59961 L 186.3418 284.80078 L 163.07617 284.80078 L 163.07617 249.60156 L 139.75586 249.60156 L 139.75586 284.80078 L 116.49023 284.80078 L 116.49023 179.20117 L 93.169922 179.20117 L 93.169922 144 L 69.90625 144 z M 722.09961 144 L 722.09961 302.40039 L 698.83398 302.40039 L 698.83398 320.00195 L 722.09961 320.00195 L 745.41992 320.00195 L 768.68555 320.00195 L 792.00586 320.00195 L 814.88672 320.00195 L 838.15234 320.00195 L 861.47266 320.00195 L 884.73828 320.00195 L 908.05859 320.00195 L 931.32227 320.00195 L 954.64258 320.00195 L 977.9082 320.00195 L 1001.2285 320.00195 L 1024.4941 320.00195 L 1047.8145 320.00195 L 1071.0801 320.00195 L 1094.3984 320.00195 L 1117.6641 320.00195 L 1140.9844 320.00195 L 1164.25 320.00195 L 1187.5703 320.00195 L 1210.8906 320.00195 L 1234.1562 320.00195 L 1257.4746 320.00195 L 1280.7402 320.00195 L 1304.0605 320.00195 L 1327.3262 320.00195 L 1350.6465 320.00195 L 1373.9121 320.00195 L 1397.2305 320.00195 L 1420.4961 320.00195 L 1443.8164 320.00195 L 1467.082 320.00195 L 1467.082 249.60156 L 1443.8164 249.60156 L 1443.8164 267.20312 L 1420.4961 267.20312 L 1420.4961 161.60156 L 1397.2305 161.60156 L 1397.2305 144.00195 L 1373.9121 144.00195 L 1373.9121 267.20312 L 1350.6465 267.20312 L 1350.6465 196.80273 L 1327.3262 196.80273 L 1327.3262 214.40234 L 1304.0605 214.40234 L 1280.7402 214.40234 L 1280.7402 302.40234 L 1257.4746 302.40234 L 1257.4746 179.20117 L 1234.1562 179.20117 L 1234.1562 144.00195 L 1210.8906 144.00195 L 1210.8906 196.80273 L 1187.5703 196.80273 L 1187.5703 267.20312 L 1164.25 267.20312 L 1164.25 196.80273 L 1140.9844 196.80273 L 1140.9844 267.20312 L 1117.6641 267.20312 L 1117.6641 161.60156 L 1094.3984 161.60156 L 1094.3984 179.20117 L 1071.0801 179.20117 L 1047.8145 179.20117 L 1047.8145 249.60156 L 1024.4941 249.60156 L 1024.4941 232.00195 L 1001.2285 232.00195 L 1001.2285 161.60156 L 977.9082 161.60156 L 977.9082 284.80273 L 954.64258 284.80273 L 954.64258 249.60156 L 931.32227 249.60156 L 931.32227 284.80273 L 908.05859 284.80273 L 908.05859 179.20117 L 884.73828 179.20117 L 884.73828 144.00195 L 861.47266 144.00195 L 861.47266 179.20117 L 838.15234 179.20117 L 838.15234 267.20312 L 814.88672 267.20312 L 814.88672 284.80273 L 792.00586 284.80273 L 792.00586 284.80078 L 768.68555 284.80078 L 768.68555 214.40039 L 745.41992 214.40039 L 745.41992 144 L 722.09961 144 z M 1653.1562 144 L 1653.1562 179.20117 L 1629.8359 179.20117 L 1629.8359 267.20117 L 1606.5703 267.20117 L 1606.5703 284.80078 L 1583.25 284.80078 L 1583.25 284.80273 L 1560.252 284.80273 L 1560.252 214.40234 L 1536.9883 214.40234 L 1536.9883 144.00195 L 1513.668 144.00195 L 1513.668 302.40234 L 1490.4023 302.40234 L 1490.4023 320.00195 L 1513.668 320.00195 L 1536.9883 320.00195 L 1560.252 320.00195 L 1583.5723 320.00195 L 1606.5703 320.00195 L 1629.8359 320.00195 L 1653.1562 320.00195 L 1676.4199 320.00195 L 1699.7402 320.00195 L 1723.0059 320.00195 L 1746.3262 320.00195 L 1769.5918 320.00195 L 1792.9121 320.00195 L 1816.1758 320.00195 L 1839.4961 320.00195 L 1862.7617 320.00195 L 1886.082 320.00195 L 1909.3477 320.00195 L 1932.668 320.00195 L 1955.9316 320.00195 L 1979.252 320.00195 L 2002.5723 320.00195 L 2025.8379 320.00195 L 2049.1582 320.00195 L 2072.4238 320.00195 L 2095.7441 320.00195 L 2119.0078 320.00195 L 2142.3281 320.00195 L 2165.5938 320.00195 L 2188.9141 320.00195 L 2212.1797 320.00195 L 2235.5 320.00195 L 2258.7656 320.00195 L 2258.7656 249.60156 L 2235.5 249.60156 L 2235.5 267.20117 L 2212.1797 267.20117 L 2212.1797 161.59961 L 2188.9141 161.59961 L 2188.9141 144 L 2165.5938 144 L 2165.5938 267.20117 L 2142.3281 267.20117 L 2142.3281 196.80078 L 2119.0078 196.80078 L 2119.0078 214.40039 L 2095.7441 214.40039 L 2072.4238 214.40039 L 2072.4238 302.40039 L 2049.1582 302.40039 L 2049.1582 179.20117 L 2025.8379 179.20117 L 2025.8379 144 L 2002.5723 144 L 2002.5723 196.80078 L 1979.252 196.80078 L 1979.252 267.20117 L 1955.9316 267.20117 L 1955.9316 196.80078 L 1932.668 196.80078 L 1932.668 267.20117 L 1909.3477 267.20117 L 1909.3477 161.59961 L 1886.082 161.59961 L 1886.082 179.20117 L 1862.7617 179.20117 L 1839.4961 179.20117 L 1839.4961 249.60156 L 1816.1758 249.60156 L 1816.1758 232 L 1792.9121 232 L 1792.9121 161.59961 L 1769.5918 161.59961 L 1769.5918 284.80078 L 1746.3262 284.80078 L 1746.3262 249.60156 L 1723.0059 249.60156 L 1723.0059 284.80078 L 1699.7402 284.80078 L 1699.7402 179.20117 L 1676.4199 179.20117 L 1676.4199 144 L 1653.1562 144 z " />
</svg>
